<svg width="20" height="20" viewBox="0 0 20 20" fill="none" xmlns="http://www.w3.org/2000/svg">
<g clip-path="url(#clip0_461_25435)">
<path d="M9.99984 1.66675C12.0842 3.94871 13.2688 6.91011 13.3332 10.0001C13.2688 13.0901 12.0842 16.0515 9.99984 18.3334M9.99984 1.66675C7.91544 3.94871 6.73088 6.91011 6.6665 10.0001C6.73088 13.0901 7.91544 16.0515 9.99984 18.3334M9.99984 1.66675C5.39746 1.66675 1.6665 5.39771 1.6665 10.0001C1.6665 14.6025 5.39746 18.3334 9.99984 18.3334M9.99984 1.66675C14.6022 1.66675 18.3332 5.39771 18.3332 10.0001C18.3332 14.6025 14.6022 18.3334 9.99984 18.3334M2.08319 7.50008H17.9165M2.08317 12.5001H17.9165" stroke="white" stroke-width="2" stroke-linecap="round" stroke-linejoin="round"/>
</g>
<defs>
<clipPath id="clip0_461_25435">
<rect width="20" height="20" fill="white"/>
</clipPath>
</defs>
</svg>
